<svg xmlns="http://www.w3.org/2000/svg" viewBox="0 0 24 24" fill="none" stroke="#34a978" stroke-width="1.5" stroke-linecap="round" stroke-linejoin="round">
  <!-- Left half: organic brain -->
  <path d="M9.5 2A2.5 2.5 0 0 1 12 4.5v15a2.5 2.5 0 0 1-4.96.44 2.5 2.5 0 0 1-2.96-3.08 3 3 0 0 1-.34-5.58 2.5 2.5 0 0 1 1.32-4.24 2.5 2.5 0 0 1 1.98-3A2.5 2.5 0 0 1 9.5 2Z"/>
  <path d="M9.4 7a2 2 0 0 0 0 3.2"/>
  <path d="M8.7 12.1a2.2 2.2 0 0 0 0 3.3"/>
  <!-- Right half: circuit-board traces with right-angle bends + nodes -->
  <path d="M12 6 H15.2"/>
  <path d="M12 9 H16.4 V7.4 H17.8"/>
  <path d="M12 12 H14.8"/>
  <path d="M12 15 H16.4 V16.6 H17.8"/>
  <path d="M12 18 H15.2"/>
  <circle cx="15.2" cy="6" r="1" fill="#34a978" stroke="none"/>
  <circle cx="17.8" cy="7.4" r="1" fill="#34a978" stroke="none"/>
  <circle cx="14.8" cy="12" r="1" fill="#34a978" stroke="none"/>
  <circle cx="17.8" cy="16.6" r="1" fill="#34a978" stroke="none"/>
  <circle cx="15.2" cy="18" r="1" fill="#34a978" stroke="none"/>
</svg>
