<svg xmlns="http://www.w3.org/2000/svg" viewBox="0 0 32 32">

  <rect width="32" height="32" rx="7" fill="#1f8a5b"></rect>

  <path d="M16 5.6c-4.2 0-7.4 3.1-7.4 7 0 2.7 1.5 4.5 2.9 5.9.9.9 1.3 1.5 1.4 2.5h6.2c.1-1 .5-1.6 1.4-2.5 1.4-1.4 2.9-3.2 2.9-5.9 0-3.9-3.2-7-7.4-7Z" fill="#ffffff"></path>
  <rect x="12.6" y="21.6" width="6.8" height="2" rx="1" fill="#ffffff"></rect>
  <rect x="13.5" y="24.3" width="5" height="2" rx="1" fill="#ffffff"></rect>

  <path d="M13 11.8 L19 11.8 L16 16.2 Z" fill="none" stroke="#1f8a5b" stroke-width="1.1"></path>
  <circle cx="13" cy="11.8" r="1.7" fill="#1f8a5b"></circle>
  <circle cx="19" cy="11.8" r="1.7" fill="#1f8a5b"></circle>
  <circle cx="16" cy="16.2" r="1.7" fill="#1f8a5b"></circle>
</svg>
